<mxfile host="app.diagrams.net" agent="Mozilla/5.0 (Windows NT 10.0; Win64; x64) AppleWebKit/537.36 (KHTML, like Gecko) Chrome/141.0.0.0 Safari/537.36" version="28.2.7">
  <diagram name="Página-1" id="4BO9RR1lgGSJ5hZVkAou">
    <mxGraphModel grid="1" page="1" gridSize="10" guides="1" tooltips="1" connect="1" arrows="1" fold="1" pageScale="1" pageWidth="827" pageHeight="1169" math="0" shadow="0">
      <root>
        <mxCell id="0" />
        <mxCell id="1" parent="0" />
        <mxCell id="dMq4kOXlm5JykkNtJXAO-1" value="" style="rounded=0;whiteSpace=wrap;html=1;" vertex="1" parent="1">
          <mxGeometry x="179" y="20" width="470" height="460" as="geometry" />
        </mxCell>
        <mxCell id="PD3HkCe21eV4B-ATWDyY-13" style="edgeStyle=orthogonalEdgeStyle;rounded=0;orthogonalLoop=1;jettySize=auto;html=1;exitX=0.5;exitY=0.5;exitDx=0;exitDy=0;exitPerimeter=0;" edge="1" parent="1" source="dMq4kOXlm5JykkNtJXAO-2" target="PD3HkCe21eV4B-ATWDyY-6">
          <mxGeometry relative="1" as="geometry" />
        </mxCell>
        <mxCell id="PD3HkCe21eV4B-ATWDyY-28" style="rounded=0;orthogonalLoop=1;jettySize=auto;html=1;exitX=0.5;exitY=0.5;exitDx=0;exitDy=0;exitPerimeter=0;entryX=0;entryY=0.5;entryDx=0;entryDy=0;" edge="1" parent="1" source="dMq4kOXlm5JykkNtJXAO-2" target="PD3HkCe21eV4B-ATWDyY-11">
          <mxGeometry relative="1" as="geometry" />
        </mxCell>
        <mxCell id="dMq4kOXlm5JykkNtJXAO-2" value="Administrador" style="shape=umlActor;verticalLabelPosition=bottom;verticalAlign=top;html=1;outlineConnect=0;" vertex="1" parent="1">
          <mxGeometry x="100" y="70" width="30" height="60" as="geometry" />
        </mxCell>
        <mxCell id="PD3HkCe21eV4B-ATWDyY-18" style="rounded=0;orthogonalLoop=1;jettySize=auto;html=1;exitX=0.5;exitY=0.5;exitDx=0;exitDy=0;exitPerimeter=0;entryX=0;entryY=0.5;entryDx=0;entryDy=0;" edge="1" parent="1" source="dMq4kOXlm5JykkNtJXAO-3" target="PD3HkCe21eV4B-ATWDyY-8">
          <mxGeometry relative="1" as="geometry" />
        </mxCell>
        <mxCell id="dMq4kOXlm5JykkNtJXAO-3" value="Atleta" style="shape=umlActor;verticalLabelPosition=bottom;verticalAlign=top;html=1;outlineConnect=0;" vertex="1" parent="1">
          <mxGeometry x="100" y="220" width="30" height="60" as="geometry" />
        </mxCell>
        <mxCell id="PD3HkCe21eV4B-ATWDyY-19" style="edgeStyle=orthogonalEdgeStyle;rounded=0;orthogonalLoop=1;jettySize=auto;html=1;exitX=0.5;exitY=0.5;exitDx=0;exitDy=0;exitPerimeter=0;" edge="1" parent="1" source="PD3HkCe21eV4B-ATWDyY-5" target="PD3HkCe21eV4B-ATWDyY-10">
          <mxGeometry relative="1" as="geometry" />
        </mxCell>
        <mxCell id="PD3HkCe21eV4B-ATWDyY-5" value="Juiz" style="shape=umlActor;verticalLabelPosition=bottom;verticalAlign=top;html=1;outlineConnect=0;" vertex="1" parent="1">
          <mxGeometry x="100" y="370" width="30" height="60" as="geometry" />
        </mxCell>
        <mxCell id="PD3HkCe21eV4B-ATWDyY-6" value="Cadastrar competição" style="ellipse;whiteSpace=wrap;html=1;" vertex="1" parent="1">
          <mxGeometry x="284" y="55" width="130" height="90" as="geometry" />
        </mxCell>
        <mxCell id="PD3HkCe21eV4B-ATWDyY-8" value="Inscrever em competição" style="ellipse;whiteSpace=wrap;html=1;" vertex="1" parent="1">
          <mxGeometry x="294" y="260" width="120" height="80" as="geometry" />
        </mxCell>
        <mxCell id="PD3HkCe21eV4B-ATWDyY-9" value="Alocar local" style="ellipse;whiteSpace=wrap;html=1;" vertex="1" parent="1">
          <mxGeometry x="510" y="60" width="120" height="80" as="geometry" />
        </mxCell>
        <mxCell id="PD3HkCe21eV4B-ATWDyY-10" value="Registrar resultados" style="ellipse;whiteSpace=wrap;html=1;" vertex="1" parent="1">
          <mxGeometry x="294" y="360" width="120" height="80" as="geometry" />
        </mxCell>
        <mxCell id="PD3HkCe21eV4B-ATWDyY-11" value="Gerar relatórios de medalhas" style="ellipse;whiteSpace=wrap;html=1;" vertex="1" parent="1">
          <mxGeometry x="294" y="160" width="120" height="80" as="geometry" />
        </mxCell>
        <mxCell id="PD3HkCe21eV4B-ATWDyY-27" value="&amp;lt;&amp;lt;include&amp;gt;&amp;gt;" style="html=1;verticalAlign=bottom;labelBackgroundColor=none;endArrow=open;endFill=0;dashed=1;rounded=0;entryX=0;entryY=0.5;entryDx=0;entryDy=0;exitX=1;exitY=0.5;exitDx=0;exitDy=0;" edge="1" parent="1" source="PD3HkCe21eV4B-ATWDyY-6" target="PD3HkCe21eV4B-ATWDyY-9">
          <mxGeometry width="160" relative="1" as="geometry">
            <mxPoint x="414" y="210" as="sourcePoint" />
            <mxPoint x="574" y="210" as="targetPoint" />
          </mxGeometry>
        </mxCell>
      </root>
    </mxGraphModel>
  </diagram>
</mxfile>
